<?xml version="1.0" encoding="UTF-8"?>
<svg id="Layer_1" data-name="Layer 1" xmlns="http://www.w3.org/2000/svg" xmlns:xlink="http://www.w3.org/1999/xlink" viewBox="0 0 608.9 195.74">
  <defs>
    <style>
      .cls-1 {
        fill: url(#linear-gradient);
        stroke-width: 0px;
      }

      .cls-2 {
        fill: #fff;
        font-family: SFProDisplay-Regular, 'SF Pro Display';
        font-size: 66px;
      }

      .cls-3 {
        letter-spacing: -.02em;
      }
    </style>
    <linearGradient id="linear-gradient" x1="56.24" y1="98.35" x2="172.15" y2="98.35" gradientUnits="userSpaceOnUse">
      <stop offset="0" stop-color="#1f7cff" stop-opacity=".44"/>
      <stop offset=".05" stop-color="#1081ff" stop-opacity=".64"/>
      <stop offset=".14" stop-color="#0991fd" stop-opacity=".75"/>
      <stop offset=".27" stop-color="#02a4fb" stop-opacity=".86"/>
      <stop offset=".33" stop-color="#00acfb" stop-opacity=".91"/>
      <stop offset=".34" stop-color="#00acfa" stop-opacity=".91"/>
      <stop offset=".55" stop-color="#00cae8" stop-opacity=".95"/>
      <stop offset=".67" stop-color="#00d6e2" stop-opacity=".96"/>
      <stop offset=".71" stop-color="#00d6df" stop-opacity=".96"/>
      <stop offset="1" stop-color="#00d9cf" stop-opacity=".94"/>
    </linearGradient>
  </defs>
  <path class="cls-1" d="m158.57,78.6c0,4.89-3.99,8.85-8.9,8.85s-8.9-3.96-8.9-8.85,3.99-8.85,8.9-8.85,8.9,3.96,8.9,8.85Zm-9.59,30.37c-4.92,0-8.9,3.96-8.9,8.85s3.99,8.85,8.9,8.85,8.9-3.96,8.9-8.85-3.99-8.85-8.9-8.85Zm-33.97-59.71c-4.92,0-8.9,3.96-8.9,8.85s3.99,8.85,8.9,8.85,8.9-3.96,8.9-8.85-3.99-8.85-8.9-8.85Zm-.38,78.91c-4.92,0-8.9,3.96-8.9,8.85s3.99,8.85,8.9,8.85,8.9-3.96,8.9-8.85-3.99-8.85-8.9-8.85Zm-34.9-19.2c-4.92,0-8.9,3.96-8.9,8.85s3.99,8.85,8.9,8.85,8.9-3.96,8.9-8.85-3.99-8.85-8.9-8.85Zm0-39.23c-4.92,0-8.9,3.96-8.9,8.85s3.99,8.85,8.9,8.85,8.9-3.96,8.9-8.85-3.99-8.85-8.9-8.85Zm35.04,5.5c-1.86,0-3.37,1.5-3.37,3.35s1.51,3.35,3.37,3.35,3.37-1.5,3.37-3.35-1.51-3.35-3.37-3.35Zm0,39.23c-1.86,0-3.37,1.5-3.37,3.35s1.51,3.35,3.37,3.35,3.37-1.5,3.37-3.35-1.51-3.35-3.37-3.35Zm17.76-10.08c-1.86,0-3.37,1.5-3.37,3.35s1.51,3.35,3.37,3.35,3.37-1.5,3.37-3.35-1.51-3.35-3.37-3.35Zm0-19.73c-1.86,0-3.37,1.5-3.37,3.35s1.51,3.35,3.37,3.35,3.37-1.5,3.37-3.35-1.51-3.35-3.37-3.35Zm-35.43,0c-1.86,0-3.37,1.5-3.37,3.35s1.51,3.35,3.37,3.35,3.37-1.5,3.37-3.35-1.51-3.35-3.37-3.35Zm0,19.73c-1.86,0-3.37,1.5-3.37,3.35s1.51,3.35,3.37,3.35,3.37-1.5,3.37-3.35-1.51-3.35-3.37-3.35Zm69.02-40.59c-2.39,0-4.33,1.93-4.33,4.3s1.94,4.3,4.33,4.3,4.33-1.93,4.33-4.3-1.94-4.3-4.33-4.3Zm0,59.83c-2.39,0-4.33,1.93-4.33,4.3s1.94,4.3,4.33,4.3,4.33-1.93,4.33-4.3-1.94-4.3-4.33-4.3Zm-103.88,0c-2.39,0-4.33,1.93-4.33,4.3s1.94,4.3,4.33,4.3,4.33-1.93,4.33-4.3-1.94-4.3-4.33-4.3Zm52.15,29.09c-2.39,0-4.33,1.93-4.33,4.3s1.94,4.3,4.33,4.3,4.33-1.93,4.33-4.3-1.94-4.3-4.33-4.3Zm.38-117.39c-2.39,0-4.33,1.93-4.33,4.3s1.94,4.3,4.33,4.3,4.33-1.93,4.33-4.3-1.94-4.3-4.33-4.3Zm-52.53,28.47c-2.39,0-4.33,1.93-4.33,4.3s1.94,4.3,4.33,4.3,4.33-1.93,4.33-4.3-1.94-4.3-4.33-4.3Zm34.86-.62c-2.74,0-4.95,2.2-4.95,4.92s2.22,4.92,4.95,4.92,4.95-2.2,4.95-4.92-2.22-4.92-4.95-4.92Zm35.43,0c-2.74,0-4.95,2.2-4.95,4.92s2.22,4.92,4.95,4.92,4.95-2.2,4.95-4.92-2.22-4.92-4.95-4.92Zm16.67,29.87c-2.74,0-4.95,2.2-4.95,4.92s2.22,4.92,4.95,4.92,4.95-2.2,4.95-4.92-2.22-4.92-4.95-4.92Zm-69.47,0c-2.74,0-4.95,2.2-4.95,4.92s2.22,4.92,4.95,4.92,4.95-2.2,4.95-4.92-2.22-4.92-4.95-4.92Zm17.37,29.97c-2.74,0-4.95,2.2-4.95,4.92s2.22,4.92,4.95,4.92,4.95-2.2,4.95-4.92-2.22-4.92-4.95-4.92Zm35.43.22c-2.74,0-4.95,2.2-4.95,4.92s2.22,4.92,4.95,4.92,4.95-2.2,4.95-4.92-2.22-4.92-4.95-4.92Zm17.13-70.81c-3.32,0-6.01,2.68-6.01,5.98s2.69,5.98,6.01,5.98,6.01-2.68,6.01-5.98-2.69-5.98-6.01-5.98Zm-.46,78.61c-3.32,0-6.01,2.68-6.01,5.98s2.69,5.98,6.01,5.98,6.01-2.68,6.01-5.98-2.69-5.98-6.01-5.98Zm-69.47,0c-3.32,0-6.01,2.68-6.01,5.98s2.69,5.98,6.01,5.98,6.01-2.68,6.01-5.98-2.69-5.98-6.01-5.98Zm86.39-29.28c-3.32,0-6.01,2.68-6.01,5.98s2.69,5.98,6.01,5.98,6.01-2.68,6.01-5.98-2.69-5.98-6.01-5.98Zm0-19.73c-3.32,0-6.01,2.68-6.01,5.98s2.69,5.98,6.01,5.98,6.01-2.68,6.01-5.98-2.69-5.98-6.01-5.98Zm-103.88,0c-3.32,0-6.01,2.68-6.01,5.98s2.69,5.98,6.01,5.98,6.01-2.68,6.01-5.98-2.69-5.98-6.01-5.98Zm0,19.73c-3.32,0-6.01,2.68-6.01,5.98s2.69,5.98,6.01,5.98,6.01-2.68,6.01-5.98-2.69-5.98-6.01-5.98Zm70.29-59.47c-3.32,0-6.01,2.68-6.01,5.98s2.69,5.98,6.01,5.98,6.01-2.68,6.01-5.98-2.69-5.98-6.01-5.98Zm-35.43,0c-3.32,0-6.01,2.68-6.01,5.98s2.69,5.98,6.01,5.98,6.01-2.68,6.01-5.98-2.69-5.98-6.01-5.98Zm-17.37,9.72c-3.32,0-6.01,2.68-6.01,5.98s2.69,5.98,6.01,5.98,6.01-2.68,6.01-5.98-2.69-5.98-6.01-5.98Zm17.37,89.43c-3.32,0-6.01,2.68-6.01,5.98s2.69,5.98,6.01,5.98,6.01-2.68,6.01-5.98-2.69-5.98-6.01-5.98Zm34.51,0c-3.32,0-6.01,2.68-6.01,5.98s2.69,5.98,6.01,5.98,6.01-2.68,6.01-5.98-2.69-5.98-6.01-5.98Z"/>
  <text class="cls-2" transform="translate(182.81 121.85)"><tspan x="0" y="0">Neut</tspan><tspan class="cls-3" x="134.61" y="0">r</tspan><tspan x="153.33" y="0">onium</tspan></text>
</svg>